# Blender v2.62 (sub 0) OBJ File: 'level_1.blend'
# www.blender.org
mtllib mapas/level_1/level_1.mtl
o Cube
v 124.580299 -1.759553 5.671928
v -124.580307 -1.759553 5.671931
v -124.580284 -1.759553 -5.671929
v 124.580353 -1.759553 -5.671929
v 124.580238 0.004777 5.671931
v -124.580383 0.004777 5.671927
v -124.580261 0.004777 -5.671930
v 124.580307 0.004777 -5.671931
vn 0.000000 -1.000000 0.000000
vn -0.000000 1.000000 0.000000
vn -0.000000 0.000000 1.000000
vn -1.000000 -0.000015 -0.000006
vn -0.000000 -0.000001 -1.000000
vn 1.000000 0.000030 0.000005
g Cube_Cube_Material
usemtl Material
s off
f 1//1 2//1 3//1
f 1//1 3//1 4//1
f 5//2 8//2 7//2
f 5//2 7//2 6//2
f 1//3 5//3 6//3
f 1//3 6//3 2//3
f 2//4 6//4 7//4
f 2//4 7//4 3//4
f 3//5 7//5 8//5
f 3//5 8//5 4//5
f 5//6 1//6 4//6
f 5//6 4//6 8//6
